<svg xmlns="http://www.w3.org/2000/svg" viewBox="0 0 100 100">
  <!-- Body -->
  <path d="M 50,100 C 40,90 30,70 30,55 C 30,30 40,20 50,20 C 60,20 70,30 70,55 C 70,70 60,90 50,100 Z" fill="#A0522D"/>
  
  <!-- Face -->
  <circle cx="50" cy="55" r="20" fill="#CD853F"/>
  
  <!-- Eyes -->
  <circle cx="42" cy="50" r="4" fill="black"/>
  <circle cx="58" cy="50" r="4" fill="black"/>
  <circle cx="43" cy="49" r="1.5" fill="white"/>
  <circle cx="59" cy="49" r="1.5" fill="white"/>
  
  <!-- Nose -->
  <ellipse cx="50" cy="60" rx="6" ry="4" fill="#FF69B4"/>
  
  <!-- Whiskers -->
  <path d="M 30 58 Q 20 60 15 58" stroke="black" stroke-width="0.5" fill="none"/>
  <path d="M 30 62 Q 20 64 15 62" stroke="black" stroke-width="0.5" fill="none"/>
  <path d="M 70 58 Q 80 60 85 58" stroke="black" stroke-width="0.5" fill="none"/>
  <path d="M 70 62 Q 80 64 85 62" stroke="black" stroke-width="0.5" fill="none"/>

  <!-- Paws (visible when rising) -->
  <circle cx="28" cy="75" r="8" fill="#CD853F"/>
  <circle cx="72" cy="75" r="8" fill="#CD853F"/>
</svg>